<svg xmlns="http://www.w3.org/2000/svg" viewBox="0 0 48 48" fill="none">
  <rect width="48" height="48" rx="12" fill="#582C6F"/>
  <path d="M12 14C12 13.4477 12.4477 13 13 13H22C23.1046 13 24 13.8954 24 15V35C24 35 22 34 19 34H13C12.4477 34 12 33.5523 12 33V14Z" fill="#B08B1E"/>
  <path d="M36 14C36 13.4477 35.5523 13 35 13H26C24.8954 13 24 13.8954 24 15V35C24 35 26 34 29 34H35C35.5523 34 36 33.5523 36 33V14Z" fill="#FDF9F3" fill-opacity="0.9"/>
  <line x1="24" y1="15" x2="24" y2="35" stroke="#582C6F" stroke-width="0.5"/>
</svg>
